<?xml version="1.0" encoding="UTF-8"?>
<svg version="1.1" viewBox="0 0 1872 1888" width="1280" height="1280" xmlns="http://www.w3.org/2000/svg">
<path transform="translate(0)" d="m0 0h1872v1888h-1872z" fill="#FEFEFE"/>
<path transform="translate(1039,573)" d="m0 0h12l12 5 14 10 13 12 28 28 7 6 231 231 7 8 12 15 8 13 4 9-1 4-8 16-12 17-10 11-7 8-39 39-8 7-187 187-8 7-24 24-11 9-10 7-13 5h-6l-18-6-8-6-7-9-4-9-1-3v-13l5-13 8-12 9-11 9-9 7-8 180-180 5-4 7-8 4-4-7-1-5 1h-506l-108-1-24-1-13-2-17-4-10-5-6-8-5-10-2-7v-11l3-14 6-9 10-7 17-8 11-2 19-1h621l8-2-1-6-7-8-49-49-2-1v-2l-4-2-7-8-5-4v-2h-2v-2h-2l-7-8-97-97-7-8-17-17-11-14-7-11-4-9-1-7 2-10 6-8 8-8 12-7z" fill="#1C31C6"/>
</svg>
