<?xml version="1.0" encoding="UTF-8"?>
<svg version="1.1" viewBox="0 0 852 924" width="1280" height="1280" xmlns="http://www.w3.org/2000/svg">
<path transform="translate(0)" d="m0 0h852v924h-852z" fill="#FDFDFD"/>
<path transform="translate(323,136)" d="m0 0h28l17 1 23 4 22 6 26 10 21 11 19 13 14 11 10 9 8 7 12 14 8 9 13 19 14 27 8 17 6 20 5 24 3 27v18l-3 32-4 19-6 21-8 20-11 21-14 22 1 4 18 18 7 8 40 40 7 8 48 48 7 8 9 9v2l4 2 5 6 8 7 23 23 7 8 11 11 7 9 3 9v10l-5 10-8 9-11 7-6 2h-7l-10-4-9-6-10-9-175-175-8-7-5-5-4 1-10 6-19 11-4 2-11 5-16 7-29 8-21 4-23 2h-17l-18-1-27-5-21-6-21-8-16-8-15-9-13-9-14-11-11-10-5-4-7-8-12-14-14-19-15-29-8-17-6-19-6-29-2-17v-30l2-21 5-24 6-21 9-22 11-21 11-16 14-18 16-17 11-9 10-9 14-10 13-8 16-8 20-9 18-6 23-5z" fill="#596165"/>
<path transform="translate(335,200)" d="m0 0h10l28 3 23 6 15 6 17 9 16 11 10 8 12 11 7 7 7 10 8 10 13 25 5 13 5 17 3 19 1 10v25l-3 22-5 19-8 20-8 14-8 12-11 14-11 12-8 7-8 6-9 7-28 15-18 6-15 4-24 3-15 1-29-3-24-7-16-6-18-10-17-12-14-12-10-10-7-10-9-11-8-15-4-8-5-12-7-23-4-32v-10l3-29 7-24 5-14 11-19 8-12 13-16 8-9 16-12 7-6 16-9 16-8 24-8 17-3z" fill="#FDFDFD"/>
</svg>
